<svg id="SvgjsSvg1059" width="288" height="288" xmlns="http://www.w3.org/2000/svg" version="1.1" xmlns:xlink="http://www.w3.org/1999/xlink" xmlns:svgjs="http://svgjs.com/svgjs"><defs id="SvgjsDefs1060"></defs><g id="SvgjsG1061"><svg xmlns="http://www.w3.org/2000/svg" fill="none" viewBox="0 0 128 128" width="288" height="288"><path stroke="#6e57e0" stroke-width="5" d="M76 27V41C76 42.6569 77.3431 44 79 44H93" class="colorStroke000 svgStroke"></path><path stroke="#6e57e0" stroke-linecap="round" stroke-width="5" d="M35 54.5L35 35C35 30.0294 39.0294 26 44 26H74.0785C75.9108 26 77.6701 26.7184 78.9786 28.0011L88.0509 36.8939L91.1244 40.1967C92.3299 41.4921 93 43.1959 93 44.9654V93C93 97.9706 88.9706 102 84 102H44C39.0294 102 35 97.9706 35 93L35 90" class="colorStroke000 svgStroke"></path><path fill="#6e57e0" d="M42.78 75.8199C42.9267 75.7133 43.06 75.6533 43.18 75.6399 43.3 75.6266 43.4067 75.6866 43.5 75.8199L45.14 78.2199C45.2467 78.3666 45.2867 78.4866 45.26 78.5799 45.2334 78.6599 45.1467 78.7533 45 78.8599 44.4667 79.2466 43.84 79.5733 43.12 79.8399 42.4134 80.0933 41.6067 80.2199 40.7 80.2199 39.6467 80.2199 38.6534 80.0199 37.72 79.6199 36.7867 79.2199 35.9667 78.6733 35.26 77.9799 34.5667 77.2733 34.02 76.4533 33.62 75.5199 33.22 74.5866 33.02 73.5933 33.02 72.5399 33.02 71.4733 33.22 70.4799 33.62 69.5599 34.02 68.6399 34.5667 67.8333 35.26 67.1399 35.9667 66.4466 36.7867 65.9066 37.72 65.5199 38.6534 65.1199 39.6467 64.9199 40.7 64.9199 41.6067 64.9199 42.4134 65.0599 43.12 65.3399 43.84 65.6066 44.48 65.9333 45.04 66.3199 45.1467 66.3866 45.2067 66.4733 45.22 66.5799 45.2334 66.6866 45.22 66.7733 45.18 66.8399L43.44 69.3399C43.36 69.4466 43.26 69.4999 43.14 69.4999 43.0334 69.4866 42.9267 69.4333 42.82 69.3399 42.4867 69.0733 42.1534 68.8866 41.82 68.7799 41.4867 68.6599 41.1134 68.5999 40.7 68.5999 40.14 68.5999 39.62 68.6999 39.14 68.8999 38.6734 69.0999 38.2667 69.3799 37.92 69.7399 37.5734 70.0866 37.3 70.4999 37.1 70.9799 36.9134 71.4599 36.82 71.9799 36.82 72.5399 36.82 73.0999 36.9134 73.6266 37.1 74.1199 37.3 74.5999 37.5734 75.0199 37.92 75.3799 38.2667 75.7399 38.6734 76.0266 39.14 76.2399 39.62 76.4399 40.14 76.5399 40.7 76.5399 41.1267 76.5399 41.5134 76.4666 41.86 76.3199 42.2067 76.1733 42.5134 76.0066 42.78 75.8199zM47.7021 79.5599V65.5999C47.7021 65.4533 47.7421 65.3466 47.8221 65.2799 47.9021 65.1999 48.0021 65.1599 48.1221 65.1599H54.5421C55.2221 65.1599 55.8421 65.2999 56.4021 65.5799 56.9754 65.8599 57.4621 66.2266 57.8621 66.6799 58.2754 67.1333 58.5954 67.6533 58.8221 68.2399 59.0487 68.8133 59.1621 69.4066 59.1621 70.0199 59.1621 70.6199 59.0487 71.2066 58.8221 71.7799 58.6087 72.3533 58.302 72.8666 57.9021 73.3199 57.5021 73.7733 57.0221 74.1399 56.4621 74.4199 55.9021 74.6866 55.2821 74.8199 54.6021 74.8199H51.542V79.5599C51.542 79.8533 51.3887 79.9999 51.0821 79.9999H48.1221C47.8421 79.9999 47.7021 79.8533 47.7021 79.5599zM53.7021 68.3199H51.542V71.6599H53.7021C54.1954 71.6599 54.5754 71.4933 54.8421 71.1599 55.1087 70.8133 55.2421 70.4266 55.2421 69.9999 55.2421 69.7999 55.2021 69.5999 55.1221 69.3999 55.0554 69.1999 54.9554 69.0199 54.8221 68.8599 54.7021 68.6999 54.5421 68.5733 54.3421 68.4799 54.1554 68.3733 53.9421 68.3199 53.7021 68.3199zM61.2958 79.5599V65.5999C61.2958 65.4533 61.3358 65.3466 61.4158 65.2799 61.4958 65.1999 61.5958 65.1599 61.7158 65.1599H68.1358C68.8158 65.1599 69.4358 65.2999 69.9958 65.5799 70.5691 65.8599 71.0558 66.2266 71.4558 66.6799 71.8691 67.1333 72.1891 67.6533 72.4158 68.2399 72.6425 68.8133 72.7558 69.4066 72.7558 70.0199 72.7558 70.6199 72.6425 71.2066 72.4158 71.7799 72.2025 72.3533 71.8958 72.8666 71.4958 73.3199 71.0958 73.7733 70.6158 74.1399 70.0558 74.4199 69.4958 74.6866 68.8758 74.8199 68.1958 74.8199H65.1358V79.5599C65.1358 79.8533 64.9825 79.9999 64.6758 79.9999H61.7158C61.4358 79.9999 61.2958 79.8533 61.2958 79.5599zM67.2958 68.3199H65.1358V71.6599H67.2958C67.7891 71.6599 68.1691 71.4933 68.4358 71.1599 68.7025 70.8133 68.8358 70.4266 68.8358 69.9999 68.8358 69.7999 68.7958 69.5999 68.7158 69.3999 68.6491 69.1999 68.5491 69.0199 68.4158 68.8599 68.2958 68.6999 68.1358 68.5733 67.9358 68.4799 67.7491 68.3733 67.5358 68.3199 67.2958 68.3199z" class="color000 svgShape"></path><path fill="#6e57e0" fill-rule="evenodd" d="M40.7 65.1699C39.6793 65.1699 38.7195 65.3635 37.8185 65.7497L37.8157 65.7509C36.9117 66.1254 36.1191 66.6475 35.4359 67.3176C34.7657 67.988 34.2369 68.7681 33.8493 69.6596C33.4638 70.5462 33.27 71.5053 33.27 72.5399C33.27 73.5607 33.4636 74.5204 33.8498 75.4214C34.2376 76.3263 34.7665 77.1196 35.4368 77.8031C36.1204 78.4734 36.9137 79.0024 37.8185 79.3901C38.7195 79.7763 39.6793 79.9699 40.7 79.9699C41.5831 79.9699 42.36 79.8466 43.0343 79.6051C43.7359 79.3451 44.3414 79.0286 44.8533 78.6575C44.9184 78.6101 44.9631 78.5708 44.9918 78.5398C45.0037 78.527 45.0114 78.5172 45.0162 78.5104C45.0155 78.5074 45.0144 78.5036 45.0128 78.499C45.0036 78.4713 44.982 78.4278 44.9378 78.367L44.9335 78.361L43.2952 75.9633C43.295 75.9629 43.2947 75.9626 43.2944 75.9622C43.2629 75.9174 43.2391 75.8994 43.2275 75.8928C43.2191 75.8881 43.2148 75.8876 43.2076 75.8884C43.1472 75.8951 43.0549 75.9291 42.9271 76.0221L42.9234 76.0248C42.6403 76.2229 42.3178 76.3977 41.9574 76.5502C41.5761 76.7115 41.1557 76.7899 40.7 76.7899C40.1096 76.7899 39.5566 76.6843 39.0439 76.4707L39.036 76.4674C38.5416 76.2414 38.109 75.9365 37.7399 75.5533C37.3709 75.1701 37.0807 74.7236 36.8693 74.2161L36.8661 74.2084C36.6681 73.6851 36.57 73.1283 36.57 72.5399C36.57 71.9516 36.6682 71.4006 36.867 70.8893L36.8692 70.8837C37.0807 70.3762 37.3712 69.9356 37.7416 69.5648C38.1114 69.1812 38.5454 68.8828 39.0415 68.6701L39.0439 68.6691C39.5566 68.4555 40.1096 68.3499 40.7 68.3499C41.1358 68.3499 41.537 68.413 41.9005 68.5432C42.267 68.6612 42.6255 68.8641 42.9762 69.1447L42.9848 69.1516C43.0563 69.2141 43.1128 69.2402 43.155 69.2492C43.1808 69.2463 43.2061 69.234 43.2377 69.193L44.9674 66.7078C44.9714 66.6984 44.9795 66.6711 44.972 66.6109C44.9696 66.592 44.9625 66.5663 44.9075 66.5319L44.8978 66.5259C44.357 66.1524 43.7361 65.8347 43.0332 65.5744L43.0279 65.5724C42.3556 65.306 41.5811 65.1699 40.7 65.1699ZM37.6229 65.2895C38.5881 64.8761 39.6146 64.6699 40.7 64.6699C41.6312 64.6699 42.4691 64.8135 43.2095 65.1065C43.9437 65.3786 44.6003 65.7131 45.1778 66.1112C45.3333 66.2102 45.4441 66.3566 45.4681 66.5489C45.4857 66.6901 45.4724 66.8385 45.3944 66.9685L45.39 66.9758L43.6401 69.49C43.519 69.6516 43.3483 69.7499 43.14 69.7499H43.1245L43.109 69.748C42.9412 69.727 42.7912 69.6458 42.6598 69.5319C42.3467 69.282 42.0412 69.1132 41.7438 69.018L41.7353 69.0153C41.4332 68.9066 41.0892 68.8499 40.7 68.8499C40.1709 68.8499 39.6843 68.9442 39.2374 69.1302C38.8014 69.3172 38.423 69.5781 38.1001 69.9133L38.0968 69.9167C37.7753 70.2383 37.52 70.6228 37.3319 71.0733C37.1582 71.5212 37.07 72.0093 37.07 72.5399C37.07 73.0701 37.158 73.5653 37.3324 74.0276C37.5208 74.4785 37.7768 74.8707 38.1001 75.2065C38.4235 75.5423 38.8028 75.8103 39.2401 76.0108C39.6863 76.1961 40.172 76.2899 40.7 76.2899C41.0977 76.2899 41.4506 76.2217 41.7626 76.0897C42.0948 75.9491 42.3851 75.791 42.6349 75.6163C42.7998 75.4967 42.9736 75.4113 43.1524 75.3915C43.3945 75.3646 43.58 75.4982 43.7048 75.6766L43.7064 75.6789L45.3444 78.076C45.4588 78.234 45.5604 78.4385 45.5004 78.6486L45.4974 78.6591C45.4437 78.8201 45.297 78.9531 45.1471 79.0621C44.5926 79.4641 43.9447 79.8011 43.2068 80.0744L43.2044 80.0753C42.4657 80.3401 41.6296 80.4699 40.7 80.4699C39.6141 80.4699 38.5872 80.2635 37.6215 79.8497C36.6605 79.4378 35.8143 78.874 35.0849 78.1584L35.0815 78.155C34.3659 77.4257 33.8021 76.5795 33.3902 75.6184C32.9764 74.6528 32.77 73.6258 32.77 72.5399C32.77 71.4412 32.9762 70.4137 33.3908 69.4602C33.803 68.5122 34.3672 67.6792 35.0832 66.9631L35.0849 66.9615C35.8146 66.2456 36.6612 65.6882 37.6229 65.2895ZM48.1221 65.4099C48.0639 65.4099 48.0289 65.4266 47.9988 65.4567L47.9908 65.4647L47.9821 65.472C47.9791 65.4744 47.9521 65.4969 47.9521 65.5999V79.5599C47.9521 79.6709 47.9787 79.7077 47.9879 79.7173C47.995 79.7247 48.0236 79.7499 48.1221 79.7499H51.0821C51.1996 79.7499 51.2413 79.7216 51.2542 79.7093C51.2651 79.6989 51.292 79.6652 51.292 79.5599V74.5699H54.6021C55.2476 74.5699 55.8297 74.4437 56.3524 74.1952C56.8838 73.9292 57.3371 73.5823 57.7146 73.1545C58.0941 72.7244 58.385 72.2377 58.5877 71.6927L58.5895 71.688C58.8049 71.1431 58.9121 70.5876 58.9121 70.0199C58.9121 69.4382 58.8047 68.8761 58.5896 68.3318L58.5889 68.33C58.3731 67.7715 58.0692 67.2782 57.6773 66.8484L57.6746 66.8453C57.2975 66.418 56.8378 66.0709 56.2923 65.8046L56.2902 65.8035C55.7679 65.5423 55.1866 65.4099 54.5421 65.4099H48.1221ZM47.653 65.0955C47.7818 64.9707 47.9438 64.9099 48.1221 64.9099H54.5421C55.2571 64.9099 55.9155 65.0573 56.5129 65.3558C57.113 65.6491 57.6257 66.0346 58.0481 66.513C58.482 66.9892 58.8176 67.5351 59.0549 68.1489C59.2928 68.7511 59.4121 69.3753 59.4121 70.0199C59.4121 70.6514 59.2928 71.2684 59.0555 71.8695C58.8316 72.4702 58.5095 73.0094 58.0895 73.4853C57.6675 73.9636 57.1615 74.3497 56.5739 74.6435L56.5696 74.6457C55.9729 74.9298 55.3156 75.0699 54.6021 75.0699H51.792V79.5599C51.792 79.748 51.7423 79.9343 51.5999 80.0706C51.4595 80.2049 51.2712 80.2499 51.0821 80.2499H48.1221C47.9405 80.2499 47.7591 80.2018 47.6262 80.0625C47.4954 79.9255 47.4521 79.7423 47.4521 79.5599V65.5999C47.4521 65.4143 47.5025 65.2265 47.653 65.0955ZM61.7158 65.4099C61.6576 65.4099 61.6226 65.4266 61.5926 65.4567L61.5846 65.4647L61.5758 65.472C61.5729 65.4744 61.5458 65.4969 61.5458 65.5999V79.5599C61.5458 79.6709 61.5725 79.7077 61.5816 79.7173C61.5887 79.7247 61.6174 79.7499 61.7158 79.7499H64.6758C64.7933 79.7499 64.835 79.7216 64.848 79.7093C64.8589 79.6989 64.8858 79.6652 64.8858 79.5599V74.5699H68.1958C68.8413 74.5699 69.4234 74.4437 69.9461 74.1952C70.4775 73.9292 70.9309 73.5823 71.3083 73.1545C71.6878 72.7244 71.9787 72.2377 72.1815 71.6927L72.1833 71.688C72.3987 71.1431 72.5058 70.5876 72.5058 70.0199C72.5058 69.4382 72.3985 68.8761 72.1833 68.3318L72.1826 68.33C71.9668 67.7715 71.663 67.2782 71.2711 66.8484L71.2683 66.8453C70.8913 66.418 70.4315 66.0709 69.8861 65.8046L69.884 65.8035C69.3616 65.5423 68.7804 65.4099 68.1358 65.4099H61.7158ZM61.2468 65.0955C61.3755 64.9707 61.5376 64.9099 61.7158 64.9099H68.1358C68.8508 64.9099 69.5092 65.0573 70.1065 65.3558C70.7067 65.649 71.2194 66.0346 71.6419 66.513C72.0758 66.9892 72.4114 67.5351 72.6487 68.1489C72.8866 68.7511 73.0058 69.3753 73.0058 70.0199C73.0058 70.6515 72.8865 71.2686 72.6492 71.8696C72.4253 72.4703 72.1032 73.0094 71.6833 73.4853C71.2613 73.9636 70.7553 74.3497 70.1676 74.6435L70.1633 74.6457C69.5666 74.9298 68.9094 75.0699 68.1958 75.0699H65.3858V79.5599C65.3858 79.748 65.3361 79.9343 65.1936 80.0706C65.0532 80.2049 64.865 80.2499 64.6758 80.2499H61.7158C61.5342 80.2499 61.3529 80.2018 61.22 80.0625C61.0891 79.9255 61.0458 79.7423 61.0458 79.5599V65.5999C61.0458 65.4143 61.0963 65.2265 61.2468 65.0955ZM51.292 68.0699H53.7021C53.9767 68.0699 54.2306 68.1305 54.457 68.2577C54.6842 68.3653 54.8735 68.5137 55.0182 68.7048C55.1681 68.8859 55.2812 69.0895 55.3569 69.3139C55.446 69.5389 55.4921 69.7681 55.4921 69.9999C55.4921 70.4832 55.3396 70.9232 55.0402 71.3123L55.0373 71.3161C54.7155 71.7184 54.258 71.9099 53.7021 71.9099H51.292V68.0699ZM51.792 68.5699V71.4099H53.7021C54.1317 71.4099 54.4339 71.2688 54.6454 71.0056C54.8783 70.702 54.9921 70.3692 54.9921 69.9999C54.9921 69.8341 54.959 69.6655 54.8899 69.4928L54.8872 69.4859L54.8849 69.479C54.8279 69.3082 54.7431 69.1557 54.63 69.02L54.6218 69.0101C54.5289 68.8863 54.403 68.7843 54.2363 68.7065L54.227 68.7021L54.218 68.697C54.0734 68.6143 53.9037 68.5699 53.7021 68.5699H51.792ZM64.8858 68.0699H67.2958C67.5705 68.0699 67.8244 68.1305 68.0508 68.2577C68.2779 68.3653 68.4672 68.5136 68.6119 68.7047C68.7619 68.8859 68.8749 69.0895 68.9506 69.3139C69.0398 69.539 69.0858 69.7681 69.0858 69.9999C69.0858 70.4832 68.9333 70.9232 68.634 71.3123L68.6311 71.3161C68.3092 71.7184 67.8518 71.9099 67.2958 71.9099H64.8858V68.0699ZM65.3858 68.5699V71.4099H67.2958C67.7255 71.4099 68.0276 71.2688 68.2391 71.0056C68.4721 70.702 68.5858 70.3692 68.5858 69.9999C68.5858 69.8341 68.5528 69.6655 68.4837 69.4928L68.481 69.4859L68.4786 69.479C68.4217 69.3082 68.3369 69.1557 68.2237 69.02L68.2155 69.0101C68.1227 68.8863 67.9968 68.7843 67.8301 68.7065L67.8207 68.7021L67.8118 68.697C67.6671 68.6143 67.4975 68.5699 67.2958 68.5699H65.3858Z" clip-rule="evenodd" class="color000 svgShape"></path></svg></g></svg>