<svg id="SvgjsSvg1080" width="288" height="288" xmlns="http://www.w3.org/2000/svg" version="1.1" xmlns:xlink="http://www.w3.org/1999/xlink" xmlns:svgjs="http://svgjs.com/svgjs"><defs id="SvgjsDefs1081"></defs><g id="SvgjsG1082"><svg xmlns="http://www.w3.org/2000/svg" viewBox="0 0 48 48" width="288" height="288"><path d="M24,42a1,1,0,0,0,1-1V37.76l4.12-4A15.77,15.77,0,0,0,31.63,14l-.29-.48H29.16V11L24,6l-5.12,5a15.85,15.85,0,0,0,0,22.88l4.12,4V41A1,1,0,0,0,24,42Zm-3.72-9.66a13.82,13.82,0,0,1,0-20L24,8.73l3.16,3.07v3.75h3.05a13.78,13.78,0,0,1-2.49,16.79L25,35V32.41l3.71-3.7a1,1,0,0,0-1.42-1.42L25,29.59V25.34a.92.92,0,0,0,.21-.13l3-3a1,1,0,0,0-1.42-1.42L25,22.59V15a1,1,0,0,0-2,0v3.59l-.79-.8a1,1,0,0,0-1.42,1.42l2,2a.92.92,0,0,0,.21.13v5.25l-2.79-2.8a1,1,0,0,0-1.42,1.42l4,4a.92.92,0,0,0,.21.13V35Z" data-name="Your Icons" fill="#6e57e0" class="color000 svgShape"></path></svg></g></svg>